<?xml version="1.0" encoding="UTF-8" standalone="no"?>
<!-- Created with Inkscape (http://www.inkscape.org/) -->

<svg
   xmlns:dc="http://purl.org/dc/elements/1.1/"
   xmlns:cc="http://creativecommons.org/ns#"
   xmlns:rdf="http://www.w3.org/1999/02/22-rdf-syntax-ns#"
   xmlns:svg="http://www.w3.org/2000/svg"
   xmlns="http://www.w3.org/2000/svg"
   xmlns:xlink="http://www.w3.org/1999/xlink"
   xmlns:sodipodi="http://sodipodi.sourceforge.net/DTD/sodipodi-0.dtd"
   xmlns:inkscape="http://www.inkscape.org/namespaces/inkscape"
   width="128"
   height="128"
   id="svg2"
   version="1.1"
   inkscape:version="0.91 r"
   sodipodi:docname="folder-remote.svg">
  <defs
     id="defs4">
    <inkscape:perspective
       sodipodi:type="inkscape:persp3d"
       inkscape:vp_x="0 : 64 : 1"
       inkscape:vp_y="0 : 1000 : 0"
       inkscape:vp_z="128 : 64 : 1"
       inkscape:persp3d-origin="64 : 42.666667 : 1"
       id="perspective8890" />
    <linearGradient
       id="linearGradient3785-6">
      <stop
         style="stop-color:#ffffff;stop-opacity:1;"
         offset="0"
         id="stop3787-4" />
      <stop
         style="stop-color:#d6d6d6;stop-opacity:1;"
         offset="1"
         id="stop3789-3" />
    </linearGradient>
    <linearGradient
       id="linearGradient3802-3">
      <stop
         style="stop-color:#ffc475;stop-opacity:1;"
         offset="0"
         id="stop3804-4" />
      <stop
         style="stop-color:#ff004a;stop-opacity:1;"
         offset="1"
         id="stop3806-1" />
    </linearGradient>
    <radialGradient
       inkscape:collect="always"
       xlink:href="#linearGradient3802-3"
       id="radialGradient3852"
       cx="153.60025"
       cy="1046.2241"
       fx="153.60025"
       fy="1046.2241"
       r="7.5"
       gradientTransform="matrix(1.6666654,-3.5764157e-7,3.5147543e-7,1.5999884,-101.0006,-626.5843)"
       gradientUnits="userSpaceOnUse" />
    <linearGradient
       id="linearGradient3802-3-5">
      <stop
         style="stop-color:#ffc475;stop-opacity:1;"
         offset="0"
         id="stop3804-4-7" />
      <stop
         style="stop-color:#ff004a;stop-opacity:1;"
         offset="1"
         id="stop3806-1-0" />
    </linearGradient>
    <linearGradient
       id="linearGradient3785-0-1">
      <stop
         style="stop-color:#ffffff;stop-opacity:1;"
         offset="0"
         id="stop3787-7-8" />
      <stop
         style="stop-color:#d6d6d6;stop-opacity:1;"
         offset="1"
         id="stop3789-1-7" />
    </linearGradient>
  </defs>
  <sodipodi:namedview
     id="base"
     pagecolor="#ffffff"
     bordercolor="#666666"
     borderopacity="1.0"
     inkscape:pageopacity="0.0"
     inkscape:pageshadow="2"
     inkscape:zoom="4"
     inkscape:cx="33.350672"
     inkscape:cy="64.31809"
     inkscape:document-units="px"
     inkscape:current-layer="layer1"
     showgrid="true"
     inkscape:window-width="1366"
     inkscape:window-height="741"
     inkscape:window-x="0"
     inkscape:window-y="27"
     inkscape:window-maximized="1">
    <inkscape:grid
       type="xygrid"
       id="grid3000"
       empspacing="4"
       visible="true"
       enabled="true"
       snapvisiblegridlinesonly="true" />
  </sodipodi:namedview>
  <metadata
     id="metadata7">
    <rdf:RDF>
      <cc:Work
         rdf:about="">
        <dc:format>image/svg+xml</dc:format>
        <dc:type
           rdf:resource="http://purl.org/dc/dcmitype/StillImage" />
        <dc:title />
      </cc:Work>
    </rdf:RDF>
  </metadata>
  <g
     inkscape:label="Ebene 1"
     inkscape:groupmode="layer"
     id="layer1"
     transform="translate(0,-924.36218)">
    <g
       id="g4267"
       transform="translate(0,-2.6171874e-6)">
      <g
         id="g4238">
        <circle
           style="fill:#eeeeec;fill-rule:evenodd;stroke:none;stroke-width:1px;stroke-linecap:butt;stroke-linejoin:miter;stroke-opacity:1"
           id="path3378"
           cx="64"
           cy="988.36218"
           r="64" />
        <path
           inkscape:connector-curvature="0"
           style="opacity:0.3;fill:#000000;fill-rule:evenodd;stroke:none;stroke-width:1px;stroke-linecap:butt;stroke-linejoin:miter;stroke-opacity:1"
           d="m 51.28125,962.84655 0,12 12,0 -12,-12 z m 44.144531,4.19532 -62.75,46.67973 38.195313,38.1953 a 64,64 0 0 0 9.335937,-1.6817 c 0.0026,-7e-4 0.0052,-10e-4 0.0078,0 0.664107,-0.1747 1.321585,-0.3636 1.976562,-0.5586 a 64,64 0 0 0 3.667969,-1.2187 c 0.880244,-0.3209 1.752431,-0.6583 2.613281,-1.0156 a 64,64 0 0 0 3.244141,-1.4532 c 0.928038,-0.4472 1.840626,-0.9187 2.742187,-1.4082 a 64,64 0 0 0 2.892578,-1.6582 c 0.94091,-0.5763 1.860503,-1.1824 2.767581,-1.8046 a 64,64 0 0 0 2.07617,-1.4864 c 1.12163,-0.8372 2.21344,-1.7104 3.27539,-2.6172 a 64,64 0 0 0 1.45118,-1.2754 c 1.20672,-1.0949 2.36951,-2.2354 3.48828,-3.4179 a 64,64 0 0 0 1.03515,-1.1133 c 0.95358,-1.0571 1.87627,-2.1429 2.75781,-3.2617 a 64,64 0 0 0 0.006,-0.01 c 0.46897,-0.5954 0.92715,-1.1985 1.375,-1.8106 0.86823,-1.1865 1.69437,-2.4061 2.48047,-3.6523 a 64,64 0 0 0 0.37696,-0.6153 c 1.03222,-1.678 1.99032,-3.4046 2.86718,-5.1796 a 64,64 0 0 0 0.38086,-0.7891 c 0.8307,-1.7414 1.58571,-3.5266 2.25977,-5.3496 a 64,64 0 0 0 0.31445,-0.8633 c 0.73344,-2.075 1.36808,-4.1958 1.88867,-6.3613 0.3638,-1.5133 0.67271,-3.0474 0.92774,-4.59963 a 64,64 0 0 0 0.004,-0.0156 l -31.658429,-31.658 z"
           id="path3386" />
      </g>
      <g
         transform="matrix(0.71999982,0,0,0.71999982,17.920011,276.74158)"
         id="g3380">
        <g
           transform="matrix(0.88888889,0,0,0.88888889,7.1111109,109.81802)"
           id="g3391">
          <path
             sodipodi:nodetypes="sscsssssscsss"
             inkscape:connector-curvature="0"
             id="rect3584"
             d="m 17.125,947.73718 c -1.73125,0 -3.125,1.39375 -3.125,3.125 l 0,6.25 0,68.75002 c 0,1.7312 1.39375,3.125 3.125,3.125 l 93.75,0 c 1.73125,0 3.125,-1.3938 3.125,-3.125 l 0,-68.75002 c 0,-1.73125 -1.39375,-3.125 -3.125,-3.125 l -65.625,0 0,-3.125 c 0,-1.73125 -1.39375,-3.125 -3.125,-3.125 z"
             style="opacity:1;fill:#729fcf;fill-opacity:1;stroke:none;stroke-width:0.3125;stroke-miterlimit:4;stroke-dasharray:none" />
          <rect
             ry="3.125"
             rx="3.125"
             y="957.11218"
             x="20.25"
             height="53.125"
             width="90.625"
             id="rect3594"
             style="opacity:1;fill:#eeeeec;fill-opacity:1;stroke:none;stroke-width:0.3125;stroke-miterlimit:4;stroke-dasharray:none" />
          <rect
             style="opacity:1;fill:#ffffff;fill-opacity:1;stroke:none;stroke-width:0.3125;stroke-miterlimit:4;stroke-dasharray:none"
             id="rect3596"
             width="90.625"
             height="53.125"
             x="17.125"
             y="960.23718"
             rx="3.125"
             ry="3.125" />
          <path
             sodipodi:nodetypes="sscsssssss"
             inkscape:connector-curvature="0"
             id="rect3589"
             d="m 57.75,969.61218 c -6.25,0 -6.25,6.25 -12.5,6.25 l -31.25,0 0,50.00002 c 0,1.7312 1.39375,3.125 3.125,3.125 l 93.75,0 c 1.73125,0 3.125,-1.3938 3.125,-3.125 l 0,-53.12502 c 0,-1.73125 -1.39375,-3.125 -3.125,-3.125 z"
             style="opacity:1;fill:#3465a4;fill-opacity:1;stroke:none;stroke-width:0.3125;stroke-miterlimit:4;stroke-dasharray:none" />
        </g>
      </g>
    </g>
    <text
       sodipodi:linespacing="125%"
       style="font-style:normal;font-weight:normal;font-size:24px;line-height:125%;font-family:Sans;letter-spacing:0px;word-spacing:0px;fill:#000000;fill-opacity:1;stroke:none"
       xml:space="preserve"
       id="text5893-3"
       y="948.36218"
       x="-56"><tspan
         id="tspan5895-8"
         y="948.36218"
         x="-56">128</tspan></text>
    <text
       sodipodi:linespacing="125%"
       style="font-style:normal;font-weight:normal;font-size:16px;line-height:125%;font-family:Sans;letter-spacing:0px;word-spacing:0px;fill:#000000;fill-opacity:1;stroke:none"
       xml:space="preserve"
       id="text5901"
       y="1000.3622"
       x="184"><tspan
         id="tspan5903"
         y="1000.3622"
         x="184">31 - 17</tspan></text>
    <text
       sodipodi:linespacing="125%"
       style="font-style:normal;font-weight:normal;font-size:16px;line-height:125%;font-family:Sans;letter-spacing:0px;word-spacing:0px;fill:#000000;fill-opacity:1;stroke:none"
       xml:space="preserve"
       id="text5905"
       y="1048.3622"
       x="172"><tspan
         id="tspan5907"
         y="1048.3622"
         x="172">16</tspan></text>
    <rect
       style="fill:none;stroke:#000000;stroke-width:1;stroke-linecap:round;stroke-linejoin:round;stroke-miterlimit:4;stroke-dasharray:none;stroke-dashoffset:0;stroke-opacity:1"
       id="rect5919"
       y="984.36218"
       x="140"
       rx="4.5902016e-07"
       height="40"
       width="40" />
    <path
       style="opacity:1;fill:#729fcf;fill-opacity:1;stroke:none"
       d="M 144 113 L 144 114 L 144 120 L 160 120 L 160 114 L 148 114 L 148 113 L 144 113 z "
       transform="translate(0,924.36218)"
       id="rect8156" />
    <rect
       style="fill:none;stroke:#000000;stroke-width:1;stroke-linecap:round;stroke-linejoin:round;stroke-miterlimit:4;stroke-dasharray:none;stroke-dashoffset:0;stroke-opacity:1"
       id="rect5921"
       y="1032.3622"
       x="140"
       rx="4.5902016e-07"
       height="24"
       width="24" />
    <rect
       style="fill:#b3b3b3;fill-opacity:1;stroke:none"
       id="rect6935"
       y="980.36218"
       x="144"
       rx="4.5902016e-07"
       height="4"
       width="32" />
    <rect
       style="fill:#b3b3b3;fill-opacity:1;stroke:none"
       id="rect6937"
       y="988.36218"
       x="136"
       rx="4.5902016e-07"
       height="32"
       width="4" />
    <rect
       style="fill:#b3b3b3;fill-opacity:1;stroke:none"
       id="rect6939"
       y="1028.3622"
       x="144"
       rx="4.5902016e-07"
       height="4"
       width="16" />
    <rect
       style="fill:#b3b3b3;fill-opacity:1;stroke:none"
       id="rect6941"
       y="1036.3622"
       x="136"
       rx="4.5902016e-07"
       height="16"
       width="4" />
    <path
       style="opacity:1;fill:#729fcf"
       d="M 145 68 C 144.446 68 144 68.446001 144 69 L 144 71.390625 L 144 72 L 144 78.609375 C 144 79.38015 144.61985 80 145.39062 80 L 174.60938 80 C 175.38015 80 176 79.38015 176 78.609375 L 176 71.390625 C 176 70.61985 175.38015 70 174.60938 70 L 154 70 C 152 70 152 68 150 68 L 148 68 L 145 68 z "
       transform="translate(0,924.36218)"
       id="rect4181" />
    <rect
       style="opacity:1;fill:#eeeeec;stroke:none"
       id="rect4200"
       width="29"
       height="11"
       x="146"
       y="996.36218"
       rx="1.3912899"
       ry="1.3912899" />
    <rect
       style="opacity:1;fill:#ffffff;stroke:none"
       id="rect4198"
       width="29"
       height="9"
       x="145"
       y="997.36218"
       rx="1.3912899"
       ry="1.3912899" />
    <path
       style="opacity:1;fill:#3465a4"
       d="m 156,76 c -2,0 -2,2 -4,2 l -1,0 -5.60938,0 C 144.61985,78 144,78.61985 144,79.390625 l 0,1.546875 0,0.671875 0,11 C 144,93.38015 144.61986,94 145.39062,94 l 29.21876,0 C 175.38014,94 176,93.38015 176,92.609375 l 0,-15.21875 C 176,76.61985 175.38014,76 174.60938,76 Z"
       id="rect4179"
       inkscape:connector-curvature="0"
       sodipodi:nodetypes="sscssccsssssss"
       transform="translate(0,924.36218)" />
    <rect
       style="opacity:1;fill:#ffffff;fill-opacity:1;stroke:none"
       id="rect8166"
       width="14"
       height="5"
       x="145"
       y="1039.3622" />
    <path
       style="opacity:1;fill:#3465a4;fill-opacity:1;stroke:none"
       d="M 148 117 L 148 118 L 144 118 L 144 126 L 160 126 L 160 117 L 148 117 z "
       transform="translate(0,924.36218)"
       id="rect8154" />
    <path
       inkscape:connector-curvature="0"
       id="path9861"
       d="m 158.99112,1004.3627 a 0.33715146,0.33715146 0 0 0 -0.0679,0.01 c -2.34343,0.5894 -3.76744,2.9882 -3.17806,5.3316 0.28223,1.1222 1.01084,2.0791 2.00197,2.6763 a 0.33715146,0.33715146 0 1 0 0.33453,-0.5698 c -0.83884,-0.5055 -1.44425,-1.3239 -1.68312,-2.2737 -0.5005,-1.9901 0.70712,-4.0105 2.69718,-4.511 a 0.33715146,0.33715146 0 0 0 0,-0.6534 0.33715146,0.33715146 0 0 0 -0.10455,-0.01 z m 1.98107,0 a 0.33715146,0.33715146 0 0 0 -0.0679,0.01 0.33715146,0.33715146 0 0 0 0,0.6534 c 1.99005,0.5005 3.19768,2.5209 2.69718,4.511 -0.23888,0.9498 -0.84429,1.7682 -1.68313,2.2737 a 0.33715146,0.33715146 0 1 0 0.33453,0.5698 c 0.99113,-0.5972 1.71974,-1.5541 2.00198,-2.6763 0.58937,-2.3434 -0.83463,-4.7422 -3.17807,-5.3316 a 0.33715146,0.33715146 0 0 0 -0.10454,-0.01 z m -2.05424,1.4427 a 0.33715146,0.33715146 0 0 0 -0.0993,0.026 c -1.53868,0.6535 -2.27382,2.4392 -1.6204,3.9779 0.18831,0.4434 0.49249,0.8518 0.86247,1.1604 a 0.3383705,0.3383705 0 0 0 0.4234,-0.5279 c -0.28778,-0.2401 -0.50692,-0.5386 -0.65339,-0.8834 -0.511,-1.2033 0.0408,-2.5887 1.24405,-3.0997 a 0.33715146,0.33715146 0 0 0 -0.0679,-0.6482 0.33715146,0.33715146 0 0 0 -0.0889,0 z m 2.09606,0 a 0.33715146,0.33715146 0 0 0 -0.0261,0 0.33715146,0.33715146 0 0 0 -0.0627,0.6482 c 1.20328,0.5109 1.75504,1.8963 1.24405,3.0997 -0.14647,0.3449 -0.36561,0.6434 -0.65339,0.8833 a 0.3383705,0.3383705 0 0 0 0.4234,0.5279 c 0.36998,-0.3085 0.67416,-0.7169 0.86246,-1.1604 0.65343,-1.5387 -0.0817,-3.3244 -1.62039,-3.9778 a 0.33715146,0.33715146 0 0 0 -0.16727,-0.026 z m -1.01406,1.1395 c -0.92693,0 -1.68835,0.7614 -1.68835,1.6883 0,0.6281 0.35471,1.1737 0.8677,1.4636 l -0.85724,3.8524 c -0.0454,0.1971 0.12704,0.4134 0.3293,0.413 l 2.69718,0 c 0.20227,0 0.37477,-0.2159 0.32931,-0.413 l -0.85725,-3.8524 c 0.51299,-0.2899 0.86247,-0.8355 0.86247,-1.4636 0,-0.9269 -0.75619,-1.6883 -1.68312,-1.6883 z"
       style="color:#000000;font-style:normal;font-variant:normal;font-weight:normal;font-stretch:normal;font-size:medium;line-height:normal;font-family:Sans;-inkscape-font-specification:Sans;text-indent:0;text-align:start;text-decoration:none;text-decoration-line:none;letter-spacing:normal;word-spacing:normal;text-transform:none;direction:ltr;block-progression:tb;writing-mode:lr-tb;baseline-shift:baseline;text-anchor:start;display:inline;overflow:visible;visibility:visible;fill:#ffffff;fill-opacity:1;fill-rule:nonzero;stroke:none;stroke-width:4.03090048px;marker:none;enable-background:accumulate" />
    <path
       style="fill:#ffffff;fill-opacity:1;stroke:none"
       d="M 149 119 L 149 120 L 155 120 L 155 119 L 149 119 z M 150 121 L 150 122 L 154 122 L 154 121 L 150 121 z M 152 123 C 151.446 123 151 123.446 151 124 C 151 124.554 151.446 125 152 125 C 152.554 125 153 124.554 153 124 C 153 123.446 152.554 123 152 123 z "
       transform="translate(0,924.36218)"
       id="rect9867-9" />
    <path
       style="color:#000000;font-style:normal;font-variant:normal;font-weight:normal;font-stretch:normal;font-size:medium;line-height:normal;font-family:Sans;-inkscape-font-specification:Sans;text-indent:0;text-align:start;text-decoration:none;text-decoration-line:none;letter-spacing:normal;word-spacing:normal;text-transform:none;direction:ltr;block-progression:tb;writing-mode:lr-tb;baseline-shift:baseline;text-anchor:start;display:inline;overflow:visible;visibility:visible;fill:#ffffff;fill-opacity:1;fill-rule:nonzero;stroke:none;stroke-width:4.03090048px;marker:none;enable-background:accumulate"
       d="m 62.116846,986.89747 a 0.62935234,0.62935234 0 0 0 -0.126844,0.0195 c -4.374431,1.10018 -7.032595,5.578 -5.932421,9.95243 0.526846,2.0948 1.886928,3.88087 3.737034,4.99577 a 0.62935234,0.62935234 0 1 0 0.624466,-1.0636 c -1.56585,-0.94357 -2.695942,-2.4715 -3.141842,-4.24443 -0.934272,-3.71476 1.319966,-7.48624 5.034752,-8.42051 a 0.62935234,0.62935234 0 0 0 0,-1.21966 0.62935234,0.62935234 0 0 0 -0.195145,-0.0195 z m 3.698006,0 a 0.62935234,0.62935234 0 0 0 -0.126845,0.0195 0.62935234,0.62935234 0 0 0 0,1.21966 c 3.714786,0.93427 5.969024,4.70575 5.034752,8.42051 -0.445899,1.77293 -1.575992,3.30086 -3.141841,4.24443 a 0.62935234,0.62935234 0 1 0 0.624465,1.0636 c 1.850107,-1.1149 3.210189,-2.90097 3.737035,-4.99577 1.100173,-4.37443 -1.55799,-8.85225 -5.932421,-9.95243 a 0.62935234,0.62935234 0 0 0 -0.195145,-0.0195 z m -3.834608,2.693 a 0.62935234,0.62935234 0 0 0 -0.185388,0.0488 c -2.872207,1.21974 -4.244489,4.55308 -3.024754,7.4253 0.351508,0.82773 0.919312,1.59013 1.60995,2.16606 a 0.63162791,0.63162791 0 0 0 0.790339,-0.9854 c -0.537189,-0.448 -0.94625,-1.0052 -1.219659,-1.649 -0.953863,-2.24615 0.07609,-4.83222 2.322231,-5.78608 a 0.62935234,0.62935234 0 0 0 -0.126845,-1.20991 0.62935234,0.62935234 0 0 0 -0.165874,-0.01 z m 3.912666,0 a 0.62935234,0.62935234 0 0 0 -0.04879,0.01 0.62935234,0.62935234 0 0 0 -0.117087,1.2099 c 2.246135,0.95387 3.276093,3.53994 2.32223,5.78606 -0.273408,0.6438 -0.682469,1.201 -1.219659,1.649 a 0.63162791,0.63162791 0 0 0 0.790339,0.98546 c 0.690638,-0.57593 1.258442,-1.3384 1.60995,-2.16613 1.219736,-2.87218 -0.152548,-6.20552 -3.024754,-7.42527 a 0.62935234,0.62935234 0 0 0 -0.312233,-0.0488 z m -1.892911,2.1271 c -1.730281,0 -3.151598,1.42131 -3.151598,3.1516 0,1.17244 0.662125,2.19086 1.619707,2.73206 l -1.600193,7.19107 c -0.08487,0.3679 0.237136,0.7717 0.614708,0.7708 l 5.034752,0 c 0.377573,0 0.699575,-0.4029 0.614708,-0.7708 l -1.600192,-7.19107 c 0.957582,-0.5412 1.60995,-1.55962 1.60995,-2.73206 0,-1.73029 -1.41156,-3.1516 -3.141842,-3.1516 z"
       id="path4003"
       inkscape:connector-curvature="0" />
  </g>
</svg>
