<?xml version="1.0" encoding="UTF-8" standalone="no"?>
<!-- Created with Inkscape (http://www.inkscape.org/) -->

<svg
   xmlns:dc="http://purl.org/dc/elements/1.1/"
   xmlns:cc="http://creativecommons.org/ns#"
   xmlns:rdf="http://www.w3.org/1999/02/22-rdf-syntax-ns#"
   xmlns:svg="http://www.w3.org/2000/svg"
   xmlns="http://www.w3.org/2000/svg"
   xmlns:xlink="http://www.w3.org/1999/xlink"
   xmlns:sodipodi="http://sodipodi.sourceforge.net/DTD/sodipodi-0.dtd"
   xmlns:inkscape="http://www.inkscape.org/namespaces/inkscape"
   width="128"
   height="128"
   id="svg2"
   version="1.1"
   inkscape:version="0.91 r"
   sodipodi:docname="folder-dropbox.svg">
  <defs
     id="defs4">
    <inkscape:perspective
       sodipodi:type="inkscape:persp3d"
       inkscape:vp_x="0 : 64 : 1"
       inkscape:vp_y="0 : 1000 : 0"
       inkscape:vp_z="128 : 64 : 1"
       inkscape:persp3d-origin="64 : 42.666667 : 1"
       id="perspective8890" />
    <linearGradient
       id="linearGradient3785-6">
      <stop
         style="stop-color:#ffffff;stop-opacity:1;"
         offset="0"
         id="stop3787-4" />
      <stop
         style="stop-color:#d6d6d6;stop-opacity:1;"
         offset="1"
         id="stop3789-3" />
    </linearGradient>
    <linearGradient
       id="linearGradient3802-3">
      <stop
         style="stop-color:#ffc475;stop-opacity:1;"
         offset="0"
         id="stop3804-4" />
      <stop
         style="stop-color:#ff004a;stop-opacity:1;"
         offset="1"
         id="stop3806-1" />
    </linearGradient>
    <radialGradient
       inkscape:collect="always"
       xlink:href="#linearGradient3802-3"
       id="radialGradient3852"
       cx="153.60025"
       cy="1046.2241"
       fx="153.60025"
       fy="1046.2241"
       r="7.5"
       gradientTransform="matrix(1.6666654,-3.5764157e-7,3.5147543e-7,1.5999884,-101.0006,-626.5843)"
       gradientUnits="userSpaceOnUse" />
    <linearGradient
       id="linearGradient3802-3-5">
      <stop
         style="stop-color:#ffc475;stop-opacity:1;"
         offset="0"
         id="stop3804-4-7" />
      <stop
         style="stop-color:#ff004a;stop-opacity:1;"
         offset="1"
         id="stop3806-1-0" />
    </linearGradient>
    <linearGradient
       id="linearGradient3785-0-1">
      <stop
         style="stop-color:#ffffff;stop-opacity:1;"
         offset="0"
         id="stop3787-7-8" />
      <stop
         style="stop-color:#d6d6d6;stop-opacity:1;"
         offset="1"
         id="stop3789-1-7" />
    </linearGradient>
  </defs>
  <sodipodi:namedview
     id="base"
     pagecolor="#ffffff"
     bordercolor="#666666"
     borderopacity="1.0"
     inkscape:pageopacity="0.0"
     inkscape:pageshadow="2"
     inkscape:zoom="2.0000001"
     inkscape:cx="-56.667823"
     inkscape:cy="74.103396"
     inkscape:document-units="px"
     inkscape:current-layer="layer1"
     showgrid="true"
     inkscape:window-width="1366"
     inkscape:window-height="741"
     inkscape:window-x="0"
     inkscape:window-y="27"
     inkscape:window-maximized="1">
    <inkscape:grid
       type="xygrid"
       id="grid3000"
       empspacing="4"
       visible="true"
       enabled="true"
       snapvisiblegridlinesonly="true" />
  </sodipodi:namedview>
  <metadata
     id="metadata7">
    <rdf:RDF>
      <cc:Work
         rdf:about="">
        <dc:format>image/svg+xml</dc:format>
        <dc:type
           rdf:resource="http://purl.org/dc/dcmitype/StillImage" />
        <dc:title />
      </cc:Work>
    </rdf:RDF>
  </metadata>
  <g
     inkscape:label="Ebene 1"
     inkscape:groupmode="layer"
     id="layer1"
     transform="translate(0,-924.36218)">
    <text
       sodipodi:linespacing="125%"
       style="font-style:normal;font-weight:normal;font-size:24px;line-height:125%;font-family:Sans;letter-spacing:0px;word-spacing:0px;fill:#000000;fill-opacity:1;stroke:none"
       xml:space="preserve"
       id="text5893-3"
       y="948.36218"
       x="-56"><tspan
         id="tspan5895-8"
         y="948.36218"
         x="-56">128</tspan></text>
    <text
       sodipodi:linespacing="125%"
       style="font-style:normal;font-weight:normal;font-size:16px;line-height:125%;font-family:Sans;letter-spacing:0px;word-spacing:0px;fill:#000000;fill-opacity:1;stroke:none"
       xml:space="preserve"
       id="text5901"
       y="1000.3622"
       x="184"><tspan
         id="tspan5903"
         y="1000.3622"
         x="184">31 - 17</tspan></text>
    <text
       sodipodi:linespacing="125%"
       style="font-style:normal;font-weight:normal;font-size:16px;line-height:125%;font-family:Sans;letter-spacing:0px;word-spacing:0px;fill:#000000;fill-opacity:1;stroke:none"
       xml:space="preserve"
       id="text5905"
       y="1048.3622"
       x="172"><tspan
         id="tspan5907"
         y="1048.3622"
         x="172">16</tspan></text>
    <rect
       style="fill:none;stroke:#000000;stroke-width:1;stroke-linecap:round;stroke-linejoin:round;stroke-miterlimit:4;stroke-dasharray:none;stroke-dashoffset:0;stroke-opacity:1"
       id="rect5919"
       y="984.36218"
       x="140"
       rx="4.5902016e-07"
       height="40"
       width="40" />
    <path
       style="opacity:1;fill:#fce94f;fill-opacity:1;stroke:none"
       d="M 144 113 L 144 114 L 144 120 L 160 120 L 160 114 L 148 114 L 148 113 L 144 113 z "
       transform="translate(0,924.36218)"
       id="rect8156" />
    <rect
       style="fill:none;stroke:#000000;stroke-width:1;stroke-linecap:round;stroke-linejoin:round;stroke-miterlimit:4;stroke-dasharray:none;stroke-dashoffset:0;stroke-opacity:1"
       id="rect5921"
       y="1032.3622"
       x="140"
       rx="4.5902016e-07"
       height="24"
       width="24" />
    <rect
       style="fill:#b3b3b3;fill-opacity:1;stroke:none"
       id="rect6935"
       y="980.36218"
       x="144"
       rx="4.5902016e-07"
       height="4"
       width="32" />
    <rect
       style="fill:#b3b3b3;fill-opacity:1;stroke:none"
       id="rect6937"
       y="988.36218"
       x="136"
       rx="4.5902016e-07"
       height="32"
       width="4" />
    <rect
       style="fill:#b3b3b3;fill-opacity:1;stroke:none"
       id="rect6939"
       y="1028.3622"
       x="144"
       rx="4.5902016e-07"
       height="4"
       width="16" />
    <rect
       style="fill:#b3b3b3;fill-opacity:1;stroke:none"
       id="rect6941"
       y="1036.3622"
       x="136"
       rx="4.5902016e-07"
       height="16"
       width="4" />
    <path
       style="opacity:1;fill:#fce94f"
       d="M 145 68 C 144.446 68 144 68.446001 144 69 L 144 71.390625 L 144 72 L 144 78.609375 C 144 79.38015 144.61985 80 145.39062 80 L 174.60938 80 C 175.38015 80 176 79.38015 176 78.609375 L 176 71.390625 C 176 70.61985 175.38015 70 174.60938 70 L 154 70 C 152 70 152 68 150 68 L 148 68 L 145 68 z "
       transform="translate(0,924.36218)"
       id="rect4181" />
    <rect
       style="opacity:1;fill:#eeeeec;stroke:none"
       id="rect4200"
       width="29"
       height="11"
       x="146"
       y="996.36218"
       rx="1.3912899"
       ry="1.3912899" />
    <rect
       style="opacity:1;fill:#ffffff;stroke:none"
       id="rect4198"
       width="29"
       height="9"
       x="145"
       y="997.36218"
       rx="1.3912899"
       ry="1.3912899" />
    <path
       style="opacity:1;fill:#edd400"
       d="m 156,76 c -2,0 -2,2 -4,2 l -1,0 -5.60938,0 C 144.61985,78 144,78.61985 144,79.390625 l 0,1.546875 0,0.671875 0,11 C 144,93.38015 144.61986,94 145.39062,94 l 29.21876,0 C 175.38014,94 176,93.38015 176,92.609375 l 0,-15.21875 C 176,76.61985 175.38014,76 174.60938,76 Z"
       id="rect4179"
       inkscape:connector-curvature="0"
       sodipodi:nodetypes="sscssccsssssss"
       transform="translate(0,924.36218)" />
    <rect
       style="opacity:1;fill:#ffffff;fill-opacity:1;stroke:none"
       id="rect8166"
       width="14"
       height="5"
       x="145"
       y="1039.3622" />
    <path
       style="opacity:1;fill:#edd400;fill-opacity:1;stroke:none"
       d="M 148 117 L 148 118 L 144 118 L 144 126 L 160 126 L 160 117 L 148 117 z "
       transform="translate(0,924.36218)"
       id="rect8154" />
    <g
       id="g3375"
       transform="matrix(1.3333333,0,0,1.3333333,-21.333333,-329.45406)">
      <g
         id="g3370">
        <path
           style="opacity:1;fill:#fce94f;fill-opacity:1;stroke:none;stroke-width:0.3125;stroke-miterlimit:4;stroke-dasharray:none"
           d="m 19,25 c -1.662,0 -3,1.338 -3,3 l 0,6 0,66 c 0,1.662 1.338,3 3,3 l 90,0 c 1.662,0 3,-1.338 3,-3 l 0,-66 c 0,-1.662 -1.338,-3 -3,-3 l -53,0 c -8,0 -8,-6 -16,-6 l -21,0 z"
           transform="translate(0,924.36218)"
           id="rect3584"
           inkscape:connector-curvature="0" />
        <rect
           style="opacity:1;fill:#eeeeec;fill-opacity:1;stroke:none;stroke-width:0.3125;stroke-miterlimit:4;stroke-dasharray:none"
           id="rect3594"
           width="86.999977"
           height="50.999985"
           x="22.000008"
           y="958.36212"
           rx="2.999999"
           ry="2.999999" />
        <rect
           ry="2.999999"
           rx="2.999999"
           y="961.36212"
           x="19.000008"
           height="50.999985"
           width="86.999977"
           id="rect3596"
           style="opacity:1;fill:#ffffff;fill-opacity:1;stroke:none;stroke-width:0.3125;stroke-miterlimit:4;stroke-dasharray:none" />
        <path
           inkscape:connector-curvature="0"
           style="opacity:1;fill:#edd400;fill-opacity:1;stroke:none;stroke-width:0.3125;stroke-miterlimit:4;stroke-dasharray:none"
           d="m 58,970.36218 c -5.999998,0 -6.000001,6 -12,6 l -11,0 -2,0 -14,0 c -1.662,0 -3,1.338 -3,3 l 0,5 0,3 0,37.00002 c 0,1.6619 1.338,3 3,3 l 90,0 c 1.662,0 3,-1.3381 3,-3 l 0,-51.00002 c 0,-1.662 -1.338,-3 -3,-3 l -51,0 z"
           id="rect3589" />
      </g>
      <path
         inkscape:connector-curvature="0"
         id="path3885"
         d="m 59.681363,986.56895 -0.67383,0.33693 -9.066079,4.53304 -1.301717,0.6432 1.02606,1.04137 2.741263,2.72596 -1.990862,0 -0.474744,1.99085 3.951095,1.97556 0,6.14104 0,0.6585 0.581944,0.291 9.050764,4.5178 0.474744,0.2449 0.474744,-0.2449 9.050763,-4.5178 0.581944,-0.291 0,-0.6585 0,-6.14104 3.951095,-1.97556 -0.474744,-1.99085 -1.990862,0 2.741264,-2.72596 1.02606,-1.04137 -1.301718,-0.6432 -9.066078,-4.53304 -0.67383,-0.33693 -0.536001,0.53601 -3.782637,3.78264 -3.782637,-3.78264 -0.536001,-0.53601 z m -0.413487,2.5575 2.955663,2.97098 -7.075215,3.5223 -2.970979,-2.95567 7.090531,-3.53761 z m 9.46425,0 7.09053,3.53761 -2.970978,2.95567 -7.075216,-3.5223 2.955664,-2.97098 z m -4.732125,4.41053 6.707672,3.36915 -6.707672,3.33857 -6.707672,-3.33857 6.707672,-3.36915 z m -8.00939,7.32032 3.016922,1.516 0.2144,0.1072 0.245029,0 3.476351,0 0,6.3095 -6.952702,-3.4763 0,-4.4564 z m 16.018779,0 0,4.4564 -6.952701,3.4763 0,-6.3095 3.476351,0 0.245028,0 0.214401,-0.1072 3.016921,-1.516 z"
         style="color:#000000;font-style:normal;font-variant:normal;font-weight:normal;font-stretch:normal;font-size:medium;line-height:normal;font-family:Sans;-inkscape-font-specification:Sans;text-indent:0;text-align:start;text-decoration:none;text-decoration-line:none;letter-spacing:normal;word-spacing:normal;text-transform:none;direction:ltr;block-progression:tb;writing-mode:lr-tb;baseline-shift:baseline;text-anchor:start;display:inline;overflow:visible;visibility:visible;fill:#ffffff;fill-opacity:1;stroke:none;stroke-width:4.29029131;marker:none;enable-background:accumulate" />
    </g>
    <path
       inkscape:connector-curvature="0"
       id="path3938"
       d="m 158.59421,1005.2767 -0.21934,0.1097 -2.95114,1.4755 -0.42373,0.2094 0.334,0.3389 0.89231,0.8873 -0.64805,0 -0.15453,0.6481 1.28613,0.6431 0,1.999 0,0.2144 0.18944,0.095 2.94616,1.4706 0.15454,0.08 0.15454,-0.08 2.94616,-1.4706 0.18944,-0.095 0,-0.2144 0,-1.999 1.28613,-0.6431 -0.15453,-0.6481 -0.64806,0 0.89232,-0.8873 0.334,-0.3389 -0.42373,-0.2094 -2.95115,-1.4755 -0.21933,-0.1097 -0.17448,0.1745 -1.23131,1.2312 -1.23131,-1.2312 -0.17448,-0.1745 z m -0.13459,0.8326 0.96212,0.9669 -2.3031,1.1466 -0.9671,-0.9621 2.30808,-1.1514 z m 3.08076,0 2.30808,1.1514 -0.9671,0.9621 -2.3031,-1.1466 0.96212,-0.9669 z m -1.54038,1.4355 2.18345,1.0967 -2.18345,1.0867 -2.18346,-1.0867 2.18346,-1.0967 z m -2.60718,2.3829 0.98205,0.4935 0.0697,0.035 0.0798,0 1.13161,0 0,2.0538 -2.26322,-1.1317 0,-1.4506 z m 5.21436,0 0,1.4506 -2.26321,1.1316 0,-2.0538 1.13161,0 0.0797,0 0.0697,-0.035 0.98206,-0.4935 z"
       style="color:#000000;font-style:normal;font-variant:normal;font-weight:normal;font-stretch:normal;font-size:medium;line-height:normal;font-family:Sans;-inkscape-font-specification:Sans;text-indent:0;text-align:start;text-decoration:none;text-decoration-line:none;letter-spacing:normal;word-spacing:normal;text-transform:none;direction:ltr;block-progression:tb;writing-mode:lr-tb;baseline-shift:baseline;text-anchor:start;display:inline;overflow:visible;visibility:visible;fill:#ffffff;fill-opacity:1;stroke:none;stroke-width:4.29029131;marker:none;enable-background:accumulate" />
    <path
       style="fill:#ffffff;fill-opacity:1;stroke:none"
       d="m 152,1049.3622 -3,-1 0,-3 -1,-1 3,-1 1,1 1,-1 3,1 -1,1 0,3 z"
       id="path3208"
       inkscape:connector-curvature="0"
       sodipodi:nodetypes="ccccccccccc" />
  </g>
</svg>
