<?xml version="1.0" encoding="UTF-8" standalone="no"?>
<!-- Created with Inkscape (http://www.inkscape.org/) -->

<svg
   xmlns:dc="http://purl.org/dc/elements/1.1/"
   xmlns:cc="http://creativecommons.org/ns#"
   xmlns:rdf="http://www.w3.org/1999/02/22-rdf-syntax-ns#"
   xmlns:svg="http://www.w3.org/2000/svg"
   xmlns="http://www.w3.org/2000/svg"
   xmlns:xlink="http://www.w3.org/1999/xlink"
   xmlns:sodipodi="http://sodipodi.sourceforge.net/DTD/sodipodi-0.dtd"
   xmlns:inkscape="http://www.inkscape.org/namespaces/inkscape"
   width="128"
   height="128"
   id="svg2"
   version="1.1"
   inkscape:version="0.91 r"
   sodipodi:docname="folder-templates.svg">
  <defs
     id="defs4">
    <inkscape:perspective
       sodipodi:type="inkscape:persp3d"
       inkscape:vp_x="0 : 64 : 1"
       inkscape:vp_y="0 : 1000 : 0"
       inkscape:vp_z="128 : 64 : 1"
       inkscape:persp3d-origin="64 : 42.666667 : 1"
       id="perspective8890" />
    <linearGradient
       id="linearGradient3785-6">
      <stop
         style="stop-color:#ffffff;stop-opacity:1;"
         offset="0"
         id="stop3787-4" />
      <stop
         style="stop-color:#d6d6d6;stop-opacity:1;"
         offset="1"
         id="stop3789-3" />
    </linearGradient>
    <linearGradient
       id="linearGradient3802-3">
      <stop
         style="stop-color:#ffc475;stop-opacity:1;"
         offset="0"
         id="stop3804-4" />
      <stop
         style="stop-color:#ff004a;stop-opacity:1;"
         offset="1"
         id="stop3806-1" />
    </linearGradient>
    <radialGradient
       inkscape:collect="always"
       xlink:href="#linearGradient3802-3"
       id="radialGradient3852"
       cx="153.60025"
       cy="1046.2241"
       fx="153.60025"
       fy="1046.2241"
       r="7.5"
       gradientTransform="matrix(1.6666654,-3.5764157e-7,3.5147543e-7,1.5999884,-101.0006,-626.5843)"
       gradientUnits="userSpaceOnUse" />
    <linearGradient
       id="linearGradient3802-3-5">
      <stop
         style="stop-color:#ffc475;stop-opacity:1;"
         offset="0"
         id="stop3804-4-7" />
      <stop
         style="stop-color:#ff004a;stop-opacity:1;"
         offset="1"
         id="stop3806-1-0" />
    </linearGradient>
    <linearGradient
       id="linearGradient3785-0-1">
      <stop
         style="stop-color:#ffffff;stop-opacity:1;"
         offset="0"
         id="stop3787-7-8" />
      <stop
         style="stop-color:#d6d6d6;stop-opacity:1;"
         offset="1"
         id="stop3789-1-7" />
    </linearGradient>
  </defs>
  <sodipodi:namedview
     id="base"
     pagecolor="#ffffff"
     bordercolor="#666666"
     borderopacity="1.0"
     inkscape:pageopacity="0.0"
     inkscape:pageshadow="2"
     inkscape:zoom="4.4140625"
     inkscape:cx="64"
     inkscape:cy="64"
     inkscape:document-units="px"
     inkscape:current-layer="layer1"
     showgrid="true"
     inkscape:window-width="1366"
     inkscape:window-height="741"
     inkscape:window-x="0"
     inkscape:window-y="27"
     inkscape:window-maximized="1">
    <inkscape:grid
       type="xygrid"
       id="grid3000"
       empspacing="4"
       visible="true"
       enabled="true"
       snapvisiblegridlinesonly="true" />
  </sodipodi:namedview>
  <metadata
     id="metadata7">
    <rdf:RDF>
      <cc:Work
         rdf:about="">
        <dc:format>image/svg+xml</dc:format>
        <dc:type
           rdf:resource="http://purl.org/dc/dcmitype/StillImage" />
        <dc:title />
      </cc:Work>
    </rdf:RDF>
  </metadata>
  <g
     inkscape:label="Ebene 1"
     inkscape:groupmode="layer"
     id="layer1"
     transform="translate(0,-924.36218)">
    <g
       id="g4267"
       transform="translate(0,-2.6171874e-6)">
      <g
         id="g4238">
        <circle
           style="fill:#eeeeec;fill-rule:evenodd;stroke:none;stroke-width:1px;stroke-linecap:butt;stroke-linejoin:miter;stroke-opacity:1"
           id="path3378"
           cx="64"
           cy="988.36218"
           r="64" />
        <path
           inkscape:connector-curvature="0"
           style="opacity:0.3;fill:#000000;fill-rule:evenodd;stroke:none;stroke-width:1px;stroke-linecap:butt;stroke-linejoin:miter;stroke-opacity:1"
           d="m 51.28125,962.84655 0,12 12,0 -12,-12 z m 44.144531,4.19532 -62.75,46.67973 38.195313,38.1953 a 64,64 0 0 0 9.335937,-1.6817 c 0.0026,-7e-4 0.0052,-10e-4 0.0078,0 0.664107,-0.1747 1.321585,-0.3636 1.976562,-0.5586 a 64,64 0 0 0 3.667969,-1.2187 c 0.880244,-0.3209 1.752431,-0.6583 2.613281,-1.0156 a 64,64 0 0 0 3.244141,-1.4532 c 0.928038,-0.4472 1.840626,-0.9187 2.742187,-1.4082 a 64,64 0 0 0 2.892578,-1.6582 c 0.94091,-0.5763 1.860503,-1.1824 2.767581,-1.8046 a 64,64 0 0 0 2.07617,-1.4864 c 1.12163,-0.8372 2.21344,-1.7104 3.27539,-2.6172 a 64,64 0 0 0 1.45118,-1.2754 c 1.20672,-1.0949 2.36951,-2.2354 3.48828,-3.4179 a 64,64 0 0 0 1.03515,-1.1133 c 0.95358,-1.0571 1.87627,-2.1429 2.75781,-3.2617 a 64,64 0 0 0 0.006,-0.01 c 0.46897,-0.5954 0.92715,-1.1985 1.375,-1.8106 0.86823,-1.1865 1.69437,-2.4061 2.48047,-3.6523 a 64,64 0 0 0 0.37696,-0.6153 c 1.03222,-1.678 1.99032,-3.4046 2.86718,-5.1796 a 64,64 0 0 0 0.38086,-0.7891 c 0.8307,-1.7414 1.58571,-3.5266 2.25977,-5.3496 a 64,64 0 0 0 0.31445,-0.8633 c 0.73344,-2.075 1.36808,-4.1958 1.88867,-6.3613 0.3638,-1.5133 0.67271,-3.0474 0.92774,-4.59963 a 64,64 0 0 0 0.004,-0.0156 l -31.658429,-31.658 z"
           id="path3386" />
      </g>
      <g
         transform="matrix(0.71999982,0,0,0.71999982,17.920011,276.74158)"
         id="g3380">
        <g
           transform="matrix(0.88888889,0,0,0.88888889,7.1111109,109.81802)"
           id="g3391">
          <path
             sodipodi:nodetypes="sscsssssscsss"
             inkscape:connector-curvature="0"
             id="rect3584"
             d="m 17.125,947.73718 c -1.73125,0 -3.125,1.39375 -3.125,3.125 l 0,6.25 0,68.75002 c 0,1.7312 1.39375,3.125 3.125,3.125 l 93.75,0 c 1.73125,0 3.125,-1.3938 3.125,-3.125 l 0,-68.75002 c 0,-1.73125 -1.39375,-3.125 -3.125,-3.125 l -65.625,0 0,-3.125 c 0,-1.73125 -1.39375,-3.125 -3.125,-3.125 z"
             style="opacity:1;fill:#9ce653;fill-opacity:1;stroke:none;stroke-width:0.3125;stroke-miterlimit:4;stroke-dasharray:none" />
          <rect
             ry="3.125"
             rx="3.125"
             y="957.11218"
             x="20.25"
             height="53.125"
             width="90.625"
             id="rect3594"
             style="opacity:1;fill:#eeeeec;fill-opacity:1;stroke:none;stroke-width:0.3125;stroke-miterlimit:4;stroke-dasharray:none" />
          <rect
             style="opacity:1;fill:#ffffff;fill-opacity:1;stroke:none;stroke-width:0.3125;stroke-miterlimit:4;stroke-dasharray:none"
             id="rect3596"
             width="90.625"
             height="53.125"
             x="17.125"
             y="960.23718"
             rx="3.125"
             ry="3.125" />
          <path
             sodipodi:nodetypes="sscsssssss"
             inkscape:connector-curvature="0"
             id="rect3589"
             d="m 57.75,969.61218 c -6.25,0 -6.25,6.25 -12.5,6.25 l -31.25,0 0,50.00002 c 0,1.7312 1.39375,3.125 3.125,3.125 l 93.75,0 c 1.73125,0 3.125,-1.3938 3.125,-3.125 l 0,-53.12502 c 0,-1.73125 -1.39375,-3.125 -3.125,-3.125 z"
             style="opacity:1;fill:#73bb14;fill-opacity:1;stroke:none;stroke-width:0.3125;stroke-miterlimit:4;stroke-dasharray:none" />
        </g>
      </g>
    </g>
    <text
       sodipodi:linespacing="125%"
       style="font-style:normal;font-weight:normal;font-size:24px;line-height:125%;font-family:Sans;letter-spacing:0px;word-spacing:0px;fill:#000000;fill-opacity:1;stroke:none"
       xml:space="preserve"
       id="text5893-3"
       y="948.36218"
       x="-56"><tspan
         id="tspan5895-8"
         y="948.36218"
         x="-56">128</tspan></text>
    <text
       sodipodi:linespacing="125%"
       style="font-style:normal;font-weight:normal;font-size:16px;line-height:125%;font-family:Sans;letter-spacing:0px;word-spacing:0px;fill:#000000;fill-opacity:1;stroke:none"
       xml:space="preserve"
       id="text5901"
       y="1000.3622"
       x="184"><tspan
         id="tspan5903"
         y="1000.3622"
         x="184">31 - 17</tspan></text>
    <text
       sodipodi:linespacing="125%"
       style="font-style:normal;font-weight:normal;font-size:16px;line-height:125%;font-family:Sans;letter-spacing:0px;word-spacing:0px;fill:#000000;fill-opacity:1;stroke:none"
       xml:space="preserve"
       id="text5905"
       y="1048.3622"
       x="172"><tspan
         id="tspan5907"
         y="1048.3622"
         x="172">16</tspan></text>
    <rect
       style="fill:none;stroke:#000000;stroke-width:1;stroke-linecap:round;stroke-linejoin:round;stroke-miterlimit:4;stroke-dasharray:none;stroke-dashoffset:0;stroke-opacity:1"
       id="rect5919"
       y="984.36218"
       x="140"
       rx="4.5902016e-07"
       height="40"
       width="40" />
    <path
       style="opacity:1;fill:#9ce653;fill-opacity:1;stroke:none"
       d="M 144 113 L 144 114 L 144 120 L 160 120 L 160 114 L 148 114 L 148 113 L 144 113 z "
       transform="translate(0,924.36218)"
       id="rect8156" />
    <rect
       style="fill:none;stroke:#000000;stroke-width:1;stroke-linecap:round;stroke-linejoin:round;stroke-miterlimit:4;stroke-dasharray:none;stroke-dashoffset:0;stroke-opacity:1"
       id="rect5921"
       y="1032.3622"
       x="140"
       rx="4.5902016e-07"
       height="24"
       width="24" />
    <rect
       style="fill:#b3b3b3;fill-opacity:1;stroke:none"
       id="rect6935"
       y="980.36218"
       x="144"
       rx="4.5902016e-07"
       height="4"
       width="32" />
    <rect
       style="fill:#b3b3b3;fill-opacity:1;stroke:none"
       id="rect6937"
       y="988.36218"
       x="136"
       rx="4.5902016e-07"
       height="32"
       width="4" />
    <rect
       style="fill:#b3b3b3;fill-opacity:1;stroke:none"
       id="rect6939"
       y="1028.3622"
       x="144"
       rx="4.5902016e-07"
       height="4"
       width="16" />
    <rect
       style="fill:#b3b3b3;fill-opacity:1;stroke:none"
       id="rect6941"
       y="1036.3622"
       x="136"
       rx="4.5902016e-07"
       height="16"
       width="4" />
    <path
       style="opacity:1;fill:#9ce653"
       d="M 145 68 C 144.446 68 144 68.446001 144 69 L 144 71.390625 L 144 72 L 144 78.609375 C 144 79.38015 144.61985 80 145.39062 80 L 174.60938 80 C 175.38015 80 176 79.38015 176 78.609375 L 176 71.390625 C 176 70.61985 175.38015 70 174.60938 70 L 154 70 C 152 70 152 68 150 68 L 148 68 L 145 68 z "
       transform="translate(0,924.36218)"
       id="rect4181" />
    <rect
       style="opacity:1;fill:#eeeeec;stroke:none"
       id="rect4200"
       width="29"
       height="11"
       x="146"
       y="996.36218"
       rx="1.3912899"
       ry="1.3912899" />
    <rect
       style="opacity:1;fill:#ffffff;stroke:none"
       id="rect4198"
       width="29"
       height="9"
       x="145"
       y="997.36218"
       rx="1.3912899"
       ry="1.3912899" />
    <path
       style="opacity:1;fill:#73bb14"
       d="m 156,76 c -2,0 -2,2 -4,2 l -1,0 -5.60938,0 C 144.61985,78 144,78.61985 144,79.390625 l 0,1.546875 0,0.671875 0,11 C 144,93.38015 144.61986,94 145.39062,94 l 29.21876,0 C 175.38014,94 176,93.38015 176,92.609375 l 0,-15.21875 C 176,76.61985 175.38014,76 174.60938,76 Z"
       id="rect4179"
       inkscape:connector-curvature="0"
       sodipodi:nodetypes="sscssccsssssss"
       transform="translate(0,924.36218)" />
    <rect
       style="opacity:1;fill:#ffffff;fill-opacity:1;stroke:none"
       id="rect8166"
       width="14"
       height="5"
       x="145"
       y="1039.3622" />
    <path
       style="opacity:1;fill:#73bb14;fill-opacity:1;stroke:none"
       d="M 148 117 L 148 118 L 144 118 L 144 126 L 160 126 L 160 117 L 148 117 z "
       transform="translate(0,924.36218)"
       id="rect8154" />
    <path
       style="color:#000000;font-style:normal;font-variant:normal;font-weight:normal;font-stretch:normal;font-size:medium;line-height:normal;font-family:Sans;-inkscape-font-specification:Sans;text-indent:0;text-align:start;text-decoration:none;text-decoration-line:none;letter-spacing:normal;word-spacing:normal;text-transform:none;direction:ltr;block-progression:tb;writing-mode:lr-tb;baseline-shift:baseline;text-anchor:start;display:inline;overflow:visible;visibility:visible;fill:#ffffff;fill-opacity:1;stroke:none;stroke-width:3.98219395;marker:none;enable-background:accumulate"
       d="m 55.518781,1002.3922 16.962435,0 0.852116,0 0,-0.8521 0,-10.18542 0,-1.49121 -1.291488,0.77223 -2.103662,1.26486 0,-0.54588 0,-0.83881 -0.852116,0 -11.876367,0 -1.690918,0 -0.852115,0 0,0.83881 0,0.85211 0,2.54304 1.690917,0 0,-2.54304 1.704232,0 0,0.85212 1.690918,0 0,-0.85212 1.318117,0 c -0.813243,0.90282 -1.318117,2.09082 -1.318117,3.39515 0,0.75303 0.1697,1.47249 0.466,2.11696 l -5.139324,3.0889 c 0.375143,-0.3996 -0.1087,1.5844 0.439372,1.5844 z m 9.333333,-10.18541 0,0.85212 1.690919,0 0,-0.38612 c 0.333812,0.193 0.630253,0.44095 0.878744,0.7323 l -5.738469,3.43508 c -0.147627,-0.38187 -0.226343,-0.80214 -0.226343,-1.23823 0,-0.29661 0.03613,-0.5785 0.106514,-0.85211 l 1.584404,0 0,-2.07704 c 0.500085,-0.28913 1.081086,-0.466 1.704231,-0.466 z m 6.776986,0.6524 0,7.82881 -6.524013,0 c 2.680824,-0.137 4.833095,-2.37263 4.833095,-5.08606 0,-0.29027 -0.0327,-0.57481 -0.07989,-0.85211 l 0.07989,0 0,-0.87875 z m -3.461722,2.07704 c 0.04325,0.21756 0.06657,0.4348 0.06657,0.66571 0,1.88409 -1.497724,3.39509 -3.381836,3.39509 -0.824299,0 -1.584445,-0.2894 -2.170233,-0.7722 z m -6.990014,4.194 c 0.872102,0.90507 2.088162,1.49137 3.421779,1.55777 l -6.01807,0 z"
       id="rect3033"
       inkscape:connector-curvature="0"
       sodipodi:nodetypes="ccccccccccccccccccccccccscccccccccscccccccscccccsscccccc" />
    <path
       style="fill:#ffffff;fill-opacity:1;stroke:none"
       d="m 156.11111,1004.3622 0,8.8889 2.77778,0 -1.11111,1.1111 6.11111,0 0,-6.1111 -1.66667,1.6666 0,-5.5555 -6.11111,0 z m 0.55556,0.5555 5,0 0,5.5556 -2.22223,2.2222 -2.77777,0 0,-7.7778 z m 6.66666,4.4445 0,4.4444 -4.44444,0 0.55555,-0.5555 2.77778,0 0,-2.7778 1.11111,-1.1111 z m -1.66666,1.6666 0,1.6667 -1.66667,0 1.66667,-1.6667 z"
       id="rect10121"
       inkscape:connector-curvature="0" />
    <path
       style="opacity:1;fill:#ffffff;stroke:none"
       d="M 150 119 L 150 124 L 153 124 L 152 125 L 155 125 L 155 122 L 154 123 L 154 119 L 150 119 z "
       transform="translate(0,924.36218)"
       id="rect3854" />
  </g>
</svg>
